<mxfile host="app.diagrams.net" modified="2023-09-18T06:55:13.884Z" agent="Mozilla/5.0 (Windows NT 10.0; Win64; x64) AppleWebKit/537.36 (KHTML, like Gecko) Chrome/117.0.0.0 Safari/537.36 Edg/117.0.2045.31" etag="9yqCu43KUzL-0vMV-Z_q" version="21.7.5" type="device">
  <diagram name="Seite-1" id="yRJ77OpuaOasYTO_se-A">
    <mxGraphModel dx="1257" dy="718" grid="1" gridSize="10" guides="1" tooltips="1" connect="1" arrows="1" fold="1" page="1" pageScale="1" pageWidth="827" pageHeight="1169" math="0" shadow="0">
      <root>
        <mxCell id="0" />
        <mxCell id="1" parent="0" />
        <mxCell id="yaC5q0eQrA3O9ao9Uvfu-10" value="" style="edgeStyle=orthogonalEdgeStyle;rounded=0;orthogonalLoop=1;jettySize=auto;html=1;" edge="1" parent="1" source="yaC5q0eQrA3O9ao9Uvfu-1" target="yaC5q0eQrA3O9ao9Uvfu-7">
          <mxGeometry relative="1" as="geometry" />
        </mxCell>
        <mxCell id="yaC5q0eQrA3O9ao9Uvfu-1" value="Erde" style="rounded=0;whiteSpace=wrap;html=1;" vertex="1" parent="1">
          <mxGeometry x="540" y="170" width="120" height="60" as="geometry" />
        </mxCell>
        <mxCell id="yaC5q0eQrA3O9ao9Uvfu-2" value="" style="endArrow=classic;html=1;rounded=0;" edge="1" parent="1">
          <mxGeometry width="50" height="50" relative="1" as="geometry">
            <mxPoint x="720" y="80" as="sourcePoint" />
            <mxPoint x="720" y="640" as="targetPoint" />
          </mxGeometry>
        </mxCell>
        <mxCell id="yaC5q0eQrA3O9ao9Uvfu-3" value="t" style="edgeLabel;html=1;align=center;verticalAlign=middle;resizable=0;points=[];fontSize=16;fontStyle=1" vertex="1" connectable="0" parent="yaC5q0eQrA3O9ao9Uvfu-2">
          <mxGeometry x="0.1073" y="-2" relative="1" as="geometry">
            <mxPoint x="12" as="offset" />
          </mxGeometry>
        </mxCell>
        <mxCell id="yaC5q0eQrA3O9ao9Uvfu-5" value="" style="edgeStyle=orthogonalEdgeStyle;rounded=0;orthogonalLoop=1;jettySize=auto;html=1;" edge="1" parent="1" source="yaC5q0eQrA3O9ao9Uvfu-4" target="yaC5q0eQrA3O9ao9Uvfu-1">
          <mxGeometry relative="1" as="geometry" />
        </mxCell>
        <mxCell id="yaC5q0eQrA3O9ao9Uvfu-4" value="Attribute:&lt;br&gt;Temp&lt;br&gt;BevÃ¶lkerung" style="rounded=0;whiteSpace=wrap;html=1;" vertex="1" parent="1">
          <mxGeometry x="540" y="80" width="120" height="60" as="geometry" />
        </mxCell>
        <mxCell id="yaC5q0eQrA3O9ao9Uvfu-14" value="" style="edgeStyle=orthogonalEdgeStyle;rounded=0;orthogonalLoop=1;jettySize=auto;html=1;" edge="1" parent="1" source="yaC5q0eQrA3O9ao9Uvfu-6" target="yaC5q0eQrA3O9ao9Uvfu-13">
          <mxGeometry relative="1" as="geometry" />
        </mxCell>
        <mxCell id="yaC5q0eQrA3O9ao9Uvfu-6" value="Quizfragen" style="rounded=0;whiteSpace=wrap;html=1;" vertex="1" parent="1">
          <mxGeometry x="400" y="80" width="120" height="60" as="geometry" />
        </mxCell>
        <mxCell id="yaC5q0eQrA3O9ao9Uvfu-18" value="" style="edgeStyle=orthogonalEdgeStyle;rounded=0;orthogonalLoop=1;jettySize=auto;html=1;" edge="1" parent="1" source="yaC5q0eQrA3O9ao9Uvfu-7" target="yaC5q0eQrA3O9ao9Uvfu-11">
          <mxGeometry relative="1" as="geometry" />
        </mxCell>
        <mxCell id="yaC5q0eQrA3O9ao9Uvfu-7" value="Events" style="rounded=0;whiteSpace=wrap;html=1;" vertex="1" parent="1">
          <mxGeometry x="540" y="260" width="120" height="60" as="geometry" />
        </mxCell>
        <mxCell id="yaC5q0eQrA3O9ao9Uvfu-22" value="" style="edgeStyle=orthogonalEdgeStyle;rounded=0;orthogonalLoop=1;jettySize=auto;html=1;" edge="1" parent="1" source="yaC5q0eQrA3O9ao9Uvfu-9" target="yaC5q0eQrA3O9ao9Uvfu-21">
          <mxGeometry relative="1" as="geometry" />
        </mxCell>
        <mxCell id="yaC5q0eQrA3O9ao9Uvfu-9" value="Budget" style="rounded=0;whiteSpace=wrap;html=1;" vertex="1" parent="1">
          <mxGeometry x="400" y="370" width="120" height="60" as="geometry" />
        </mxCell>
        <mxCell id="yaC5q0eQrA3O9ao9Uvfu-23" value="" style="edgeStyle=orthogonalEdgeStyle;rounded=0;orthogonalLoop=1;jettySize=auto;html=1;" edge="1" parent="1" source="yaC5q0eQrA3O9ao9Uvfu-11" target="yaC5q0eQrA3O9ao9Uvfu-21">
          <mxGeometry relative="1" as="geometry" />
        </mxCell>
        <mxCell id="yaC5q0eQrA3O9ao9Uvfu-11" value="Leben" style="rounded=0;whiteSpace=wrap;html=1;" vertex="1" parent="1">
          <mxGeometry x="540" y="370" width="120" height="60" as="geometry" />
        </mxCell>
        <mxCell id="yaC5q0eQrA3O9ao9Uvfu-19" style="edgeStyle=orthogonalEdgeStyle;rounded=0;orthogonalLoop=1;jettySize=auto;html=1;" edge="1" parent="1" source="yaC5q0eQrA3O9ao9Uvfu-13" target="yaC5q0eQrA3O9ao9Uvfu-9">
          <mxGeometry relative="1" as="geometry">
            <Array as="points">
              <mxPoint x="460" y="350" />
              <mxPoint x="460" y="350" />
            </Array>
          </mxGeometry>
        </mxCell>
        <mxCell id="yaC5q0eQrA3O9ao9Uvfu-20" style="edgeStyle=orthogonalEdgeStyle;rounded=0;orthogonalLoop=1;jettySize=auto;html=1;exitX=0.75;exitY=1;exitDx=0;exitDy=0;entryX=0.25;entryY=0;entryDx=0;entryDy=0;" edge="1" parent="1" source="yaC5q0eQrA3O9ao9Uvfu-13" target="yaC5q0eQrA3O9ao9Uvfu-11">
          <mxGeometry relative="1" as="geometry">
            <Array as="points">
              <mxPoint x="460" y="230" />
              <mxPoint x="460" y="340" />
              <mxPoint x="570" y="340" />
            </Array>
          </mxGeometry>
        </mxCell>
        <mxCell id="yaC5q0eQrA3O9ao9Uvfu-13" value="Quizfunktion" style="rounded=0;whiteSpace=wrap;html=1;" vertex="1" parent="1">
          <mxGeometry x="400" y="170" width="120" height="60" as="geometry" />
        </mxCell>
        <mxCell id="yaC5q0eQrA3O9ao9Uvfu-25" style="edgeStyle=orthogonalEdgeStyle;rounded=0;orthogonalLoop=1;jettySize=auto;html=1;exitX=0;exitY=0.5;exitDx=0;exitDy=0;" edge="1" parent="1" source="yaC5q0eQrA3O9ao9Uvfu-21" target="yaC5q0eQrA3O9ao9Uvfu-24">
          <mxGeometry relative="1" as="geometry" />
        </mxCell>
        <mxCell id="yaC5q0eQrA3O9ao9Uvfu-21" value="Spielverlauf" style="rounded=0;whiteSpace=wrap;html=1;" vertex="1" parent="1">
          <mxGeometry x="470" y="470" width="120" height="60" as="geometry" />
        </mxCell>
        <mxCell id="yaC5q0eQrA3O9ao9Uvfu-24" value="Erdulator" style="rounded=0;whiteSpace=wrap;html=1;" vertex="1" parent="1">
          <mxGeometry x="354" y="570" width="120" height="60" as="geometry" />
        </mxCell>
        <mxCell id="yaC5q0eQrA3O9ao9Uvfu-27" style="edgeStyle=orthogonalEdgeStyle;rounded=0;orthogonalLoop=1;jettySize=auto;html=1;exitX=1;exitY=0.5;exitDx=0;exitDy=0;entryX=0.5;entryY=0;entryDx=0;entryDy=0;" edge="1" parent="1" source="yaC5q0eQrA3O9ao9Uvfu-26" target="yaC5q0eQrA3O9ao9Uvfu-24">
          <mxGeometry relative="1" as="geometry" />
        </mxCell>
        <mxCell id="yaC5q0eQrA3O9ao9Uvfu-26" value="Grafik" style="rounded=0;whiteSpace=wrap;html=1;" vertex="1" parent="1">
          <mxGeometry x="230" y="470" width="120" height="60" as="geometry" />
        </mxCell>
      </root>
    </mxGraphModel>
  </diagram>
</mxfile>
